<?xml version="1.0" encoding="UTF-8" standalone="no"?>
<!DOCTYPE svg PUBLIC "-//W3C//DTD SVG 1.1//EN" "http://www.w3.org/Graphics/SVG/1.1/DTD/svg11.dtd">
<svg width="100%" height="100%" viewBox="0 0 1920 1080" version="1.1" xmlns="http://www.w3.org/2000/svg" xmlns:xlink="http://www.w3.org/1999/xlink" xml:space="preserve" xmlns:serif="http://www.serif.com/" style="fill-rule:evenodd;clip-rule:evenodd;stroke-linecap:round;stroke-linejoin:round;stroke-miterlimit:1.5;">
    <g id="Trash" transform="matrix(0.963127,4.9022e-32,1.18715e-32,0.994285,-8397.18,-558.218)">
        <g transform="matrix(0.6,0,0,0.6,4662.6,147.2)">
            <circle cx="7099" cy="798" r="80" style="fill:rgb(255,59,48);"/>
        </g>
        <g transform="matrix(2,0,0,2,8718,578)">
            <path d="M106,15C106,13.895 105.105,13 104,13L100,13C98.895,13 98,13.895 98,15L95,15C94.448,15 94,15.448 94,16L110,16C110,15.448 109.552,15 109,15L106,15ZM94.947,16.921L109.018,16.921L108.316,33.74C108.316,33.74 108.051,35 107.052,35L96.947,35C95.949,35 95.684,33.74 95.684,33.74L94.947,16.921ZM105.9,19L104.9,19L104.4,33.438L105.4,33.438L105.9,19ZM99.5,33.438L99,19L98,19L98.5,33.438L99.5,33.438ZM101.5,19L101.5,33.438L102.5,33.438L102.5,19L101.5,19Z" style="fill:white;"/>
        </g>
    </g>
    <g id="undo" transform="matrix(0.963127,4.9022e-32,1.18715e-32,0.994285,-8826.6,-459.598)">
        <g transform="matrix(0.6,0,0,0.6,4962.6,185.2)">
            <circle cx="7099" cy="798" r="80" style="fill:rgb(0,122,255);"/>
        </g>
        <g transform="matrix(2,0,0,2,8705.8,615.982)">
            <path d="M258.462,19.657C258.264,19.657 258,19.67 258,19.682L258,14.018L246,23.077L258,32.018L258,25.809C258,25.719 258.945,25.657 259.5,25.657C264.426,25.657 268.512,29.182 269.817,34C270.041,33.108 270.205,32.18 270.205,31.22C270.205,24.834 264.965,19.657 258.462,19.657Z" style="fill:white;"/>
        </g>
    </g>
    <g id="redo" transform="matrix(-0.963127,-4.9022e-32,1.18715e-32,0.994285,8937.32,-324.899)">
        <g transform="matrix(0.6,0,0,0.6,4962.6,185.2)">
            <circle cx="7099" cy="798" r="80" style="fill:rgb(0,122,255);"/>
        </g>
        <g transform="matrix(2,0,0,2,8705.8,615.982)">
            <path d="M258.462,19.657C258.264,19.657 258,19.67 258,19.682L258,14.018L246,23.077L258,32.018L258,25.809C258,25.719 258.945,25.657 259.5,25.657C264.426,25.657 268.512,29.182 269.817,34C270.041,33.108 270.205,32.18 270.205,31.22C270.205,24.834 264.965,19.657 258.462,19.657Z" style="fill:white;"/>
        </g>
    </g>
    <g id="New" transform="matrix(5.89745e-17,-0.994285,0.963127,6.08824e-17,-647.929,2582.11)">
        <g transform="matrix(5.65545e-17,0.923605,-0.923605,5.65545e-17,2765.94,-69.663)">
            <circle cx="866.042" cy="252.881" r="54.136" style="fill:rgb(177,207,208);"/>
        </g>
        <g transform="matrix(6.12323e-17,1,-1,6.12323e-17,3964.12,-674.091)">
            <path d="M1383.5,1414.6L1413.5,1414.6L1411.5,1416.6L1385.5,1416.6L1385.5,1450.6L1419.5,1450.6L1419.5,1424.6L1421.5,1422.6L1421.5,1452.6L1383.5,1452.6L1383.5,1414.6ZM1421.9,1412L1402.5,1431.5L1404.6,1433.6L1424,1414.1L1425.5,1415.5L1405.7,1435.3L1399.1,1436.9L1400.7,1430.4L1420.5,1410.6L1421.9,1412ZM1429.3,1410.3L1425.8,1406.8C1425.4,1406.4 1424.8,1406.4 1424.4,1406.8L1422.1,1409.1L1427,1414L1429.3,1411.7C1429.6,1411.3 1429.6,1410.7 1429.3,1410.3Z"/>
        </g>
        <g transform="matrix(7.79321e-17,1.27273,-1.2963,7.93753e-17,2592.86,381.772)">
            <rect x="248" y="18" width="55" height="54" style="fill:none;"/>
        </g>
    </g>
    <g id="notstroked" transform="matrix(1,0,0,1,-24,0)">
        <g transform="matrix(0.842063,0,0,1.06757,89.1835,-5.57316)">
            <rect x="347.464" y="18.794" width="114.377" height="93.136" style="fill:rgb(177,207,208);"/>
        </g>
        <g transform="matrix(0.963127,3.69779e-32,2.46519e-32,0.994285,-361.735,-439.009)">
            <path d="M837.129,479.165C830.204,475.918 817.73,474.83 812.85,485.996C809.462,493.751 812.865,496.137 812.663,503.426C812.32,515.826 777.939,522.202 795.663,532.811C841.494,560.243 820.596,507.38 824.574,503.072C830.505,496.651 848.825,510.311 852.627,500.483C856.61,490.183 843.074,481.953 837.129,479.165Z" style="fill:rgb(213,255,235);"/>
        </g>
    </g>
    <g id="notfilled" transform="matrix(5.89745e-17,-0.994285,0.963127,6.08824e-17,-229.562,2581.96)">
        <g transform="matrix(5.65545e-17,0.923605,-0.923605,5.65545e-17,2765.79,-243.49)">
            <circle cx="866.042" cy="252.881" r="54.136" style="fill:rgb(177,207,208);"/>
        </g>
        <g transform="matrix(1.01303e-16,1.65441,-1.57842,9.66503e-17,2637.81,-184.367)">
            <rect x="448.492" y="35.215" width="30.222" height="63.355" style="fill:rgb(177,207,208);"/>
        </g>
        <g transform="matrix(6.12323e-17,1,-1,6.12323e-17,3038.33,-264.348)">
            <path d="M837.129,479.165C830.204,475.918 817.73,474.83 812.85,485.996C809.462,493.751 812.865,496.137 812.663,503.426C812.32,515.826 777.939,522.202 795.663,532.811C841.494,560.243 820.596,507.38 824.574,503.072C830.505,496.651 848.825,510.311 852.627,500.483C856.61,490.183 843.074,481.953 837.129,479.165Z" style="fill:none;stroke:black;stroke-width:3.06px;"/>
        </g>
    </g>
    <g id="filled" transform="matrix(5.89745e-17,-0.994285,0.963127,6.08824e-17,-174.12,2581.96)">
        <g transform="matrix(5.65545e-17,0.923605,-0.923605,5.65545e-17,2765.79,-94.5133)">
            <circle cx="866.042" cy="252.881" r="54.136" style="fill:rgb(177,207,208);"/>
        </g>
        <g transform="matrix(1.01303e-16,1.65441,-1.57842,9.66503e-17,2637.81,-86.6212)">
            <rect x="448.492" y="35.215" width="30.222" height="63.355" style="fill:rgb(177,207,208);"/>
        </g>
        <g transform="matrix(6.12323e-17,1,-1,6.12323e-17,3038.33,-116.602)">
            <path d="M837.129,479.165C830.204,475.918 817.73,474.83 812.85,485.996C809.462,493.751 812.865,496.137 812.663,503.426C812.32,515.826 777.939,522.202 795.663,532.811C841.494,560.243 820.596,507.38 824.574,503.072C830.505,496.651 848.825,510.311 852.627,500.483C856.61,490.183 843.074,481.953 837.129,479.165Z" style="fill:rgb(213,255,235);stroke:black;stroke-width:3.06px;"/>
        </g>
    </g>
    <g id="polyline" transform="matrix(5.89745e-17,-0.994285,0.963127,6.08824e-17,-201.727,2581.96)">
        <g transform="matrix(5.65545e-17,0.923605,-0.923605,5.65545e-17,2765.79,54.4633)">
            <circle cx="866.042" cy="252.881" r="54.136" style="fill:rgb(177,207,208);"/>
        </g>
        <g transform="matrix(6.12323e-17,1,-1,6.12323e-17,2732,-1.67287e-13)">
            <path d="M829.394,188.273L849.806,226.182L861.471,175.637L881.883,197.021" style="fill:none;stroke:black;stroke-width:3.06px;"/>
        </g>
    </g>
    <g id="selectpoints" transform="matrix(5.89745e-17,-0.994285,0.963127,6.08824e-17,-222.504,2581.96)">
        <g transform="matrix(5.65545e-17,0.923605,-0.923605,5.65545e-17,2765.79,203.44)">
            <circle cx="866.042" cy="252.881" r="54.136" style="fill:rgb(177,207,208);"/>
        </g>
        <g transform="matrix(6.35766e-17,1.03828,-1.95791,1.19888e-16,2705.27,210.573)">
            <rect x="764.768" y="62.844" width="46.904" height="51.075" style="fill:rgb(177,207,208);"/>
        </g>
        <g transform="matrix(3.23555e-17,0.528405,-0.528405,3.23555e-17,2768.93,468.598)">
            <path d="M1035.76,386.138L1006.91,430.182L984.126,401.326L975.013,504.602L1075.25,477.264L1043.36,452.964L1081.33,422.589L1035.76,386.138Z" style="fill:rgb(213,255,235);stroke:black;stroke-width:5.8px;"/>
        </g>
        <g transform="matrix(6.35766e-17,1.03828,-1.00575,6.15843e-17,2596.52,256.503)">
            <rect x="700.48" y="34.446" width="11.116" height="11.116" style="fill:none;stroke:rgb(26,50,230);stroke-width:3px;"/>
        </g>
        <g transform="matrix(6.35766e-17,1.03828,-1.00575,6.15843e-17,2542.53,250.733)">
            <rect x="700.48" y="34.446" width="11.116" height="11.116" style="fill:none;stroke:rgb(26,50,230);stroke-width:3px;"/>
        </g>
        <g transform="matrix(6.35766e-17,1.03828,-1.00575,6.15843e-17,2557.92,301.674)">
            <rect x="700.48" y="34.446" width="11.116" height="11.116" style="fill:none;stroke:rgb(26,50,230);stroke-width:3px;"/>
        </g>
        <g transform="matrix(6.35766e-17,1.03828,-1.00575,6.15843e-17,2605.13,284.592)">
            <rect x="700.48" y="34.446" width="11.116" height="11.116" style="fill:none;stroke:rgb(26,50,230);stroke-width:3px;"/>
        </g>
        <g transform="matrix(6.35766e-17,1.03828,-1.00575,6.15843e-17,2585.27,306.909)">
            <rect x="700.48" y="34.446" width="11.116" height="11.116" style="fill:none;stroke:rgb(26,50,230);stroke-width:3px;"/>
        </g>
    </g>
    <g id="select" transform="matrix(6.27902e-17,0.994285,-0.963127,5.70667e-17,1810.57,-2453.55)">
        <g transform="matrix(5.65545e-17,0.923605,-0.923605,5.65545e-17,2765.79,203.44)">
            <circle cx="866.042" cy="252.881" r="54.136" style="fill:rgb(177,207,208);"/>
        </g>
        <g transform="matrix(6.35766e-17,1.03828,-1.95791,1.19888e-16,2705.27,210.573)">
            <rect x="764.768" y="62.844" width="46.904" height="51.075" style="fill:rgb(177,207,208);"/>
        </g>
        <g transform="matrix(3.23555e-17,0.528405,-0.528405,3.23555e-17,2768.93,468.598)">
            <path d="M1035.76,386.138L1006.91,430.182L984.126,401.326L975.013,504.602L1075.25,477.264L1043.36,452.964L1081.33,422.589L1035.76,386.138Z" style="fill:rgb(213,255,235);stroke:black;stroke-width:5.8px;"/>
        </g>
    </g>
    <g id="download" transform="matrix(5.89745e-17,-0.994285,0.963127,6.08824e-17,686.658,2581.96)">
        <g transform="matrix(5.65545e-17,0.923605,-0.923605,5.65545e-17,2765.79,203.44)">
            <circle cx="866.042" cy="252.881" r="54.136" style="fill:rgb(177,207,208);"/>
        </g>
        <g transform="matrix(-0.233726,-0.972303,0.972303,-0.233726,2148.06,3699.8)">
            <g transform="matrix(3.23555e-17,0.528405,-0.528405,3.23555e-17,2769.27,475.825)">
                <path d="M1013.9,429.226L1007.66,393.402L942.433,407.662L948.372,505.155L1022.36,488.07L1019.99,469.496L1031.49,460.199L1028.47,432.276L1013.9,429.226Z" style="fill:rgb(121,216,171);stroke:black;stroke-width:5.76px;"/>
            </g>
            <g transform="matrix(6.12323e-17,1,-1,6.12323e-17,2622.53,-714.29)">
                <path d="M1741.73,60.944L1721.86,72.178L1719.17,65.126L1709.45,84.276L1728.68,92.469L1727.8,85.412L1748.3,75.571L1741.73,60.944" style="fill:rgb(213,255,235);stroke:black;stroke-width:3.04px;"/>
            </g>
            <g transform="matrix(5.70652e-17,0.931945,-0.878378,5.37851e-17,2613.02,-597.659)">
                <path d="M1718.37,69.864L1723.12,76.729L1728.89,84.615L1727.73,85.832L1727.67,92.611L1723.73,90.219L1722.41,82.308L1715.2,80.28L1715.03,75.901L1718.37,69.864Z" style="fill:rgb(106,197,154);"/>
            </g>
            <g transform="matrix(3.23555e-17,0.528405,-0.528405,3.23555e-17,2768.93,461.33)">
                <path d="M1021.32,429.61L1015.08,393.785L968.131,405.935L975.013,504.602L1029.78,488.454L1027.4,469.88L1038.9,460.583L1035.89,432.66L1021.32,429.61Z" style="fill:rgb(213,255,235);stroke:black;stroke-width:5.76px;"/>
            </g>
        </g>
        <g transform="matrix(0.312732,0.949842,-0.949842,0.312732,2078.82,-661.251)">
            <text x="1703.25px" y="110.343px" style="font-family:'ArialMT', 'Arial', sans-serif;font-size:24px;">svg</text>
        </g>
    </g>
    <g id="upload" transform="matrix(5.89745e-17,-0.994285,0.963127,6.08824e-17,785.567,2581.96)">
        <g transform="matrix(5.65545e-17,0.923605,-0.923605,5.65545e-17,2765.79,203.44)">
            <circle cx="866.042" cy="252.881" r="54.136" style="fill:rgb(177,207,208);"/>
        </g>
        <g transform="matrix(0.221131,0.975244,-0.975244,0.221131,2952.59,-1689.36)">
            <g transform="matrix(3.23555e-17,0.528405,-0.528405,3.23555e-17,2769.27,475.825)">
                <path d="M1013.9,429.226L1007.66,393.402L942.433,407.662L948.372,505.155L1022.36,488.07L1019.99,469.496L1031.49,460.199L1028.47,432.276L1013.9,429.226Z" style="fill:rgb(121,216,171);stroke:black;stroke-width:5.76px;"/>
            </g>
            <g transform="matrix(-0.113554,-0.993532,0.993532,-0.113554,2667.83,2740.09)">
                <path d="M1741.73,60.944L1721.86,72.178L1719.17,65.126L1709.45,84.276L1728.68,92.469L1727.8,85.412L1748.3,75.571L1741.73,60.944" style="fill:rgb(213,255,235);stroke:black;stroke-width:3.03px;"/>
            </g>
            <g transform="matrix(5.70652e-17,0.931945,-0.878378,5.37851e-17,2613.02,-597.659)">
                <path d="M1718.37,69.864L1723.12,76.729L1728.89,84.615L1727.73,85.832L1727.67,92.611L1723.73,90.219L1722.41,82.308L1715.2,80.28L1715.03,75.901L1718.37,69.864Z" style="fill:rgb(106,197,154);"/>
            </g>
            <g transform="matrix(3.23555e-17,0.528405,-0.528405,3.23555e-17,2768.93,461.33)">
                <path d="M1021.32,429.61L1015.08,393.785L968.131,405.935L975.013,504.602L1029.78,488.454L1027.4,469.88L1038.9,460.583L1035.89,432.66L1021.32,429.61Z" style="fill:rgb(255,213,228);stroke:black;stroke-width:5.76px;"/>
            </g>
        </g>
    </g>
    <g id="rotate" transform="matrix(5.89745e-17,-0.994285,0.963127,6.08824e-17,-134.892,2581.96)">
        <g transform="matrix(5.65545e-17,0.923605,-0.923605,5.65545e-17,2765.79,352.417)">
            <circle cx="866.042" cy="252.881" r="54.136" style="fill:rgb(177,207,208);"/>
        </g>
        <g>
            <g transform="matrix(6.12323e-17,1,-1,6.12323e-17,2941.02,14.308)">
                <path d="M1108.54,404.565C1110.65,389.86 1123.32,378.544 1138.6,378.544C1153.89,378.544 1166.55,389.86 1168.67,404.565" style="fill:none;stroke:black;stroke-width:3.06px;"/>
            </g>
            <g transform="matrix(6.12323e-17,1,-1,6.12323e-17,2941.02,14.308)">
                <path d="M1168.67,413.274C1166.55,427.979 1153.89,439.295 1138.6,439.295C1123.32,439.295 1110.65,427.979 1108.54,413.274" style="fill:none;stroke:black;stroke-width:3.06px;"/>
            </g>
            <g transform="matrix(6.12323e-17,1,-1,6.12323e-17,2941.02,14.308)">
                <path d="M1155.71,400.973L1170.02,404.084L1173.13,392.886" style="fill:none;stroke:black;stroke-width:3.06px;"/>
            </g>
            <g transform="matrix(6.12323e-17,1,-1,6.12323e-17,2941.02,14.308)">
                <path d="M1109.68,413.415L1105.32,422.124" style="fill:none;stroke:black;stroke-width:3.06px;"/>
            </g>
            <g transform="matrix(6.12323e-17,1,-1,6.12323e-17,2941.02,14.308)">
                <path d="M1109.68,413.415L1120.25,417.148" style="fill:none;stroke:black;stroke-width:3.06px;"/>
            </g>
        </g>
    </g>
    <g id="move" transform="matrix(5.89745e-17,-0.994285,0.963127,6.08824e-17,-181.062,2581.96)">
        <g transform="matrix(5.65545e-17,0.923605,-0.923605,5.65545e-17,2765.79,501.393)">
            <circle cx="866.042" cy="252.881" r="54.136" style="fill:rgb(177,207,208);"/>
        </g>
        <g transform="matrix(0.719319,0,0,0.719319,827.829,494.019)">
            <g transform="matrix(1,0,0,1,0,6.22087)">
                <g transform="matrix(6.12323e-17,1,-1,6.12323e-17,2732,-1.24417)">
                    <path d="M1119.01,326.945L1119.01,394.13" style="fill:none;stroke:black;stroke-width:4.26px;"/>
                </g>
                <g transform="matrix(6.12323e-17,1,-1,6.12323e-17,2732,-1.67287e-13)">
                    <path d="M1117.76,320.102L1129.58,332.544L1105.94,332.544L1117.76,320.102Z" style="stroke:black;stroke-width:4.26px;"/>
                </g>
                <g transform="matrix(6.12323e-17,1,1,-6.12323e-17,2009.79,-1.23064e-13)">
                    <path d="M1117.76,320.102L1129.58,332.544L1105.94,332.544L1117.76,320.102Z" style="stroke:black;stroke-width:4.26px;"/>
                </g>
            </g>
            <g transform="matrix(6.12323e-17,1,-1,6.12323e-17,3488.66,-1246.91)">
                <g transform="matrix(6.12323e-17,1,-1,6.12323e-17,2732,-1.24417)">
                    <path d="M1119.01,326.945L1119.01,394.13" style="fill:none;stroke:black;stroke-width:4.26px;"/>
                </g>
                <g transform="matrix(6.12323e-17,1,-1,6.12323e-17,2732,-1.67287e-13)">
                    <path d="M1117.76,320.102L1129.58,332.544L1105.94,332.544L1117.76,320.102Z" style="stroke:black;stroke-width:4.26px;"/>
                </g>
                <g transform="matrix(6.12323e-17,1,1,-6.12323e-17,2009.79,-1.23064e-13)">
                    <path d="M1117.76,320.102L1129.58,332.544L1105.94,332.544L1117.76,320.102Z" style="stroke:black;stroke-width:4.26px;"/>
                </g>
            </g>
        </g>
    </g>
    <g id="eyedropper" transform="matrix(5.89745e-17,-0.994285,0.963127,6.08824e-17,-51.6532,2581.96)">
        <g transform="matrix(5.65545e-17,0.923605,-0.923605,5.65545e-17,2765.79,501.393)">
            <circle cx="866.042" cy="252.881" r="54.136" style="fill:rgb(177,207,208);"/>
        </g>
        <g transform="matrix(0.907313,0.434057,-0.40728,0.907313,768.732,-974.439)">
            <g transform="matrix(0.422872,0.942049,-0.912528,0.436552,2082.73,140.792)">
                <path d="M1194.09,71.692L1184.39,92.635C1185.61,93.201 1186.14,94.651 1185.58,95.871L1188.15,97.066C1188.72,95.846 1190.17,95.314 1191.39,95.88L1201.1,74.934C1202.97,75.725 1205.16,74.89 1206.02,73.027L1220.4,41.99C1221.29,40.086 1220.46,37.823 1218.55,36.94L1211.65,33.742C1209.75,32.86 1207.48,33.689 1206.6,35.594L1192.22,66.631C1191.34,68.535 1192.16,70.798 1194.07,71.68L1194.09,71.692Z" style="fill:rgb(153,159,200);"/>
            </g>
            <g transform="matrix(0.422872,0.942049,-0.912528,0.436552,2082.73,140.792)">
                <path d="M1210.11,64.205L1193.34,64.205L1192.22,66.631C1191.34,68.535 1192.16,70.798 1194.07,71.68L1194.09,71.692L1184.39,92.635C1185.61,93.201 1186.14,94.651 1185.58,95.871L1188.15,97.066C1188.72,95.846 1190.17,95.314 1191.39,95.88L1201.1,74.934C1202.97,75.725 1205.16,74.89 1206.02,73.027L1210.11,64.205Z" style="fill:rgb(196,49,104);"/>
            </g>
            <g transform="matrix(-1.2813e-17,0.258729,-0.763628,9.82875e-17,2586.19,987.041)">
                <path d="M1208.89,33.543C1208.89,32.855 1207.19,32.295 1205.09,32.295L1197.48,32.295C1195.38,32.295 1193.68,32.855 1193.68,33.543L1193.68,72.861C1193.68,73.55 1195.38,74.109 1197.48,74.109L1205.09,74.109C1207.19,74.109 1208.89,73.55 1208.89,72.861L1208.89,33.543Z" style="fill:rgb(203,205,222);"/>
            </g>
            <g transform="matrix(-2.23702e-19,0.0867072,-0.441314,1.28616e-17,2534.26,1194.6)">
                <path d="M1208.89,33.019C1208.89,32.62 1207.19,32.295 1205.09,32.295L1197.48,32.295C1195.38,32.295 1193.68,32.62 1193.68,33.019L1193.68,73.385C1193.68,73.785 1195.38,74.109 1197.48,74.109L1205.09,74.109C1207.19,74.109 1208.89,73.785 1208.89,73.385L1208.89,33.019Z" style="fill:rgb(203,205,222);"/>
            </g>
            <g transform="matrix(0.458459,0.924138,-0.895179,0.47329,2034.48,148.77)">
                <path d="M1197.94,98.846C1197.94,98.846 1193.3,104.629 1193.3,107.107C1193.3,109.666 1195.38,111.744 1197.94,111.744C1200.5,111.744 1202.57,109.666 1202.57,107.107C1202.57,104.629 1197.94,98.846 1197.94,98.846Z" style="fill:rgb(196,49,104);"/>
            </g>
            <g transform="matrix(0.422872,0.942049,-0.912528,0.436552,2082.73,140.792)">
                <path d="M1187.26,100.528C1187.26,100.528 1185.4,104.361 1186.27,105.376C1186.8,105.995 1187.09,107.491 1185.85,107.781C1185.06,107.963 1184.39,107.12 1184.39,106.305C1184.39,106.053 1184.45,105.815 1184.56,105.607C1184.91,104.493 1186.41,101.619 1187.26,100.528Z" style="fill:rgb(248,181,206);"/>
            </g>
        </g>
    </g>
    <g id="quicksave" transform="matrix(5.89745e-17,-0.994285,0.963127,6.08824e-17,285.427,2581.96)">
        <g transform="matrix(5.65545e-17,0.923605,-0.923605,5.65545e-17,2765.79,501.393)">
            <circle cx="866.042" cy="252.881" r="54.136" style="fill:rgb(177,207,208);"/>
        </g>
        <g transform="matrix(1.61305e-16,2.63431,-2.63431,1.61305e-16,3056.68,-2495.94)">
            <text x="1428.41px" y="203.593px" style="font-family:'ArialMT', 'Arial', sans-serif;font-size:24px;">qs</text>
        </g>
    </g>
    <g id="pan" transform="matrix(5.89745e-17,-0.994285,0.963127,6.08824e-17,78.5532,2583.34)">
        <g transform="matrix(5.65545e-17,0.923605,-0.923605,5.65545e-17,2765.79,501.393)">
            <circle cx="866.042" cy="252.881" r="54.136" style="fill:rgb(177,207,208);"/>
        </g>
        <g transform="matrix(3.21776e-17,0.5255,-0.5255,3.21776e-17,2631.53,590.36)">
            <path d="M1337.08,245.95C1297.51,233.96 1282.47,172.566 1293.76,161.649C1310.32,145.626 1316.38,176.564 1317.67,175.913C1320.05,174.711 1325.99,132.075 1336.64,130.212C1351.07,127.687 1350.22,163.357 1355.9,162.387C1357.78,162.064 1365.29,131.801 1374.91,134.569C1385.7,137.673 1381.7,174.621 1384.05,174.029C1386.06,173.525 1396.48,147.301 1412,154.172C1425.22,160.027 1403.95,228.809 1392,238.31C1380.63,247.348 1365.2,254.467 1337.08,245.95Z" style="fill:rgb(213,255,235);stroke:black;stroke-width:5.83px;"/>
        </g>
    </g>
    <g id="zoom" transform="matrix(5.89745e-17,-0.994285,0.963127,6.08824e-17,174.866,2583.34)">
        <g transform="matrix(5.65545e-17,0.923605,-0.923605,5.65545e-17,2765.79,501.393)">
            <circle cx="866.042" cy="252.881" r="54.136" style="fill:rgb(177,207,208);"/>
        </g>
        <g id="magnifing-glass" serif:id="magnifing glass" transform="matrix(1,0,0,1,-3.97186,-2.58913)">
            <g transform="matrix(6.12323e-17,1,-1,6.12323e-17,2640.19,-282.42)">
                <circle cx="1586.54" cy="91.499" r="16.306" style="fill:rgb(106,197,154);stroke:black;stroke-width:3.06px;"/>
            </g>
            <g transform="matrix(6.12323e-17,1,-1,6.12323e-17,2622.17,-268.973)">
                <rect x="1569.1" y="97.376" width="7.982" height="23.235" style="fill:rgb(79,79,79);stroke:black;stroke-width:3.06px;"/>
            </g>
            <g transform="matrix(6.12323e-17,1,-1,6.12323e-17,2623.27,-267.772)">
                <rect x="1569.74" y="90.358" width="4.316" height="8.506"/>
            </g>
            <g transform="matrix(6.12323e-17,1,-1,6.12323e-17,2616.98,-263.663)">
                <ellipse cx="1569.99" cy="70.629" rx="4.727" ry="4.929" style="fill:rgb(158,236,199);"/>
            </g>
            <g transform="matrix(4.80548e-17,0.784794,-0.784794,4.80548e-17,2608.74,67.3339)">
                <ellipse cx="1569.99" cy="70.629" rx="4.727" ry="4.929" style="fill:rgb(205,243,225);"/>
            </g>
        </g>
    </g>
    <g id="order-down" transform="matrix(5.89745e-17,0.994285,-0.963127,6.08824e-17,3770.58,-2567.74)">
        <g transform="matrix(6.12323e-17,1,-1.75209,1.07285e-16,2726.86,1.23719)">
            <rect x="1929.41" y="29.185" width="91.392" height="15.821" style="fill:rgb(255,213,228);"/>
        </g>
        <g transform="matrix(6.12323e-17,1,-1,6.12323e-17,2732,-3.34141)">
            <path d="M1979.68,62.183L1987.32,77.456L1972.04,77.456L1979.68,62.183Z" style="fill:rgb(114,1,41);"/>
        </g>
    </g>
    <g id="order-up" transform="matrix(5.89745e-17,-0.994285,0.963127,6.08824e-17,-36.3555,2689.72)">
        <g transform="matrix(6.12323e-17,1,-1.75209,1.07285e-16,2726.86,1.23719)">
            <rect x="1929.41" y="29.185" width="91.392" height="15.821" style="fill:rgb(255,213,228);"/>
        </g>
        <g transform="matrix(6.12323e-17,1,-1,6.12323e-17,2732,-3.34141)">
            <path d="M1979.68,62.183L1987.32,77.456L1972.04,77.456L1979.68,62.183Z" style="fill:rgb(114,1,41);"/>
        </g>
    </g>
    <g id="order-bottom" transform="matrix(5.89745e-17,-0.994285,0.963127,6.08824e-17,-36.3555,2691.4)">
        <g transform="matrix(6.12323e-17,1,-1,6.12323e-17,2634.5,1.23719)">
            <rect x="1929.41" y="29.185" width="91.392" height="15.821" style="fill:rgb(255,213,228);"/>
        </g>
        <g transform="matrix(-1.83697e-16,-1,0.566191,-1.04008e-16,2557.27,3956.02)">
            <path d="M1979.68,62.183L1987.32,77.456L1972.04,77.456L1979.68,62.183Z" style="fill:rgb(114,1,41);"/>
        </g>
    </g>
    <g id="duplicate" transform="matrix(5.89745e-17,-0.994285,0.963127,6.08824e-17,-37.1258,2715.4)">
        <g transform="matrix(6.12323e-17,1,-1,6.12323e-17,2634.5,1.23719)">
            <rect x="1929.41" y="29.185" width="91.392" height="15.821" style="fill:rgb(255,213,228);"/>
        </g>
        <g transform="matrix(1,0,0,1,0,-0.740397)">
            <g transform="matrix(-1.83697e-16,-1,0.566191,-1.04008e-16,2557.27,3948.12)">
                <path d="M1979.68,62.183L1987.32,77.456L1972.04,77.456L1979.68,62.183Z" style="fill:rgb(114,1,41);"/>
            </g>
            <g transform="matrix(-1.83697e-16,-1,0.566191,-1.04008e-16,2557.27,3965.4)">
                <path d="M1979.68,62.183L1987.32,77.456L1972.04,77.456L1979.68,62.183Z" style="fill:rgb(114,1,41);"/>
            </g>
        </g>
    </g>
    <g id="delete" transform="matrix(5.89745e-17,-0.994285,0.963127,6.08824e-17,-37.1258,2739.41)">
        <g transform="matrix(6.12323e-17,1,-1,6.12323e-17,2634.5,1.23719)">
            <rect x="1929.41" y="29.185" width="91.392" height="15.821" style="fill:rgb(255,213,228);"/>
        </g>
        <g>
            <g transform="matrix(0.603201,0.797589,-0.797589,0.603201,1554.31,286.367)">
                <rect x="1976.09" y="181.654" width="2.025" height="11.545" style="fill:rgb(114,1,41);"/>
            </g>
            <g transform="matrix(0.603201,-0.797589,-0.797589,-0.603201,1554.31,3666.31)">
                <rect x="1976.09" y="181.654" width="2.025" height="11.545" style="fill:rgb(114,1,41);"/>
            </g>
        </g>
    </g>
    <g id="order-top" transform="matrix(5.89745e-17,0.994285,-0.963127,6.08824e-17,3770.58,-2569.42)">
        <g transform="matrix(6.12323e-17,1,-1,6.12323e-17,2634.5,1.23719)">
            <rect x="1929.41" y="29.185" width="91.392" height="15.821" style="fill:rgb(255,213,228);"/>
        </g>
        <g transform="matrix(-1.83697e-16,-1,0.566191,-1.04008e-16,2557.27,3956.02)">
            <path d="M1979.68,62.183L1987.32,77.456L1972.04,77.456L1979.68,62.183Z" style="fill:rgb(114,1,41);"/>
        </g>
    </g>
</svg>
