<?xml version="1.0" encoding="UTF-8" standalone="no"?>
<!DOCTYPE svg PUBLIC "-//W3C//DTD SVG 1.1//EN" "http://www.w3.org/Graphics/SVG/1.1/DTD/svg11.dtd">
<svg width="2048px" height="2732px" version="1.1" xmlns="http://www.w3.org/2000/svg" xmlns:xlink="http://www.w3.org/1999/xlink" xml:space="preserve" xmlns:serif="http://www.serif.com/" style="fill-rule:evenodd;clip-rule:evenodd;stroke-linecap:round;stroke-linejoin:round;stroke-miterlimit:1.5;">
    <g id="Artboard1" transform="matrix(6.12323e-17,-1,1,6.12323e-17,0,2732)">
        <rect x="0" y="0" width="2732" height="2048" style="fill:none;"/>
        <clipPath id="_clip1">
            <rect x="0" y="0" width="2732" height="2048"/>
        </clipPath>
        <g clip-path="url(#_clip1)">
            <g id="Trash" transform="matrix(6.12323e-17,1,-1,6.12323e-17,3304.69,-8720.92)">
                <g transform="matrix(0.6,0,0,0.6,4662.6,147.2)">
                    <circle cx="7099" cy="798" r="80" style="fill:rgb(255,59,48);"/>
                </g>
                <g transform="matrix(2,0,0,2,8718,578)">
                    <path d="M106,15C106,13.895 105.105,13 104,13L100,13C98.895,13 98,13.895 98,15L95,15C94.448,15 94,15.448 94,16L110,16C110,15.448 109.552,15 109,15L106,15ZM94.947,16.921L109.018,16.921L108.316,33.74C108.316,33.74 108.051,35 107.052,35L96.947,35C95.949,35 95.684,33.74 95.684,33.74L94.947,16.921ZM105.9,19L104.9,19L104.4,33.438L105.4,33.438L105.9,19ZM99.5,33.438L99,19L98,19L98.5,33.438L99.5,33.438ZM101.5,19L101.5,33.438L102.5,33.438L102.5,19L101.5,19Z" style="fill:white;"/>
                </g>
            </g>
            <g id="undo" transform="matrix(6.12323e-17,1,-1,6.12323e-17,3205.51,-9166.77)">
                <g transform="matrix(0.6,0,0,0.6,4962.6,185.2)">
                    <circle cx="7099" cy="798" r="80" style="fill:rgb(0,122,255);"/>
                </g>
                <g transform="matrix(2,0,0,2,8705.8,615.982)">
                    <path d="M258.462,19.657C258.264,19.657 258,19.67 258,19.682L258,14.018L246,23.077L258,32.018L258,25.809C258,25.719 258.945,25.657 259.5,25.657C264.426,25.657 268.512,29.182 269.817,34C270.041,33.108 270.205,32.18 270.205,31.22C270.205,24.834 264.965,19.657 258.462,19.657Z" style="fill:white;"/>
                </g>
            </g>
            <g id="redo" transform="matrix(-6.12323e-17,-1,-1,6.12323e-17,3070.03,9277.23)">
                <g transform="matrix(0.6,0,0,0.6,4962.6,185.2)">
                    <circle cx="7099" cy="798" r="80" style="fill:rgb(0,122,255);"/>
                </g>
                <g transform="matrix(2,0,0,2,8705.8,615.982)">
                    <path d="M258.462,19.657C258.264,19.657 258,19.67 258,19.682L258,14.018L246,23.077L258,32.018L258,25.809C258,25.719 258.945,25.657 259.5,25.657C264.426,25.657 268.512,29.182 269.817,34C270.041,33.108 270.205,32.18 270.205,31.22C270.205,24.834 264.965,19.657 258.462,19.657Z" style="fill:white;"/>
                </g>
            </g>
            <g id="New" transform="matrix(1,0,0,1,146.32,-674.987)">
                <g transform="matrix(5.65545e-17,0.923605,-0.923605,5.65545e-17,2765.94,-69.663)">
                    <circle cx="866.042" cy="252.881" r="54.136" style="fill:rgb(177,207,208);"/>
                </g>
                <g transform="matrix(6.12323e-17,1,-1,6.12323e-17,3964.12,-674.091)">
                    <path d="M1383.5,1414.6L1413.5,1414.6L1411.5,1416.6L1385.5,1416.6L1385.5,1450.6L1419.5,1450.6L1419.5,1424.6L1421.5,1422.6L1421.5,1452.6L1383.5,1452.6L1383.5,1414.6ZM1421.9,1412L1402.5,1431.5L1404.6,1433.6L1424,1414.1L1425.5,1415.5L1405.7,1435.3L1399.1,1436.9L1400.7,1430.4L1420.5,1410.6L1421.9,1412ZM1429.3,1410.3L1425.8,1406.8C1425.4,1406.4 1424.8,1406.4 1424.4,1406.8L1422.1,1409.1L1427,1414L1429.3,1411.7C1429.6,1411.3 1429.6,1410.7 1429.3,1410.3Z"/>
                </g>
                <g transform="matrix(7.79321e-17,1.27273,-1.2963,7.93753e-17,2592.86,381.772)">
                    <rect x="248" y="18" width="55" height="54" style="fill:none;"/>
                </g>
            </g>
            <g id="notfilled" transform="matrix(1,0,0,1,146.47,-209.455)">
                <g transform="matrix(5.65545e-17,0.923605,-0.923605,5.65545e-17,2765.79,-243.49)">
                    <circle cx="866.042" cy="252.881" r="54.136" style="fill:rgb(177,207,208);"/>
                </g>
                <g transform="matrix(6.12323e-17,1,-1,6.12323e-17,3038.33,-264.348)">
                    <path d="M837.129,479.165C830.204,475.918 817.73,474.83 812.85,485.996C809.462,493.751 812.865,496.137 812.663,503.426C812.32,515.826 777.939,522.202 795.663,532.811C841.494,560.243 820.596,507.38 824.574,503.072C830.505,496.651 848.825,510.311 852.627,500.483C856.61,490.183 843.074,481.953 837.129,479.165Z" style="fill:none;stroke:black;stroke-width:3px;"/>
                </g>
            </g>
            <g id="filled" transform="matrix(1,0,0,1,146.47,-210.578)">
                <g transform="matrix(5.65545e-17,0.923605,-0.923605,5.65545e-17,2765.79,-94.5133)">
                    <circle cx="866.042" cy="252.881" r="54.136" style="fill:rgb(177,207,208);"/>
                </g>
                <g transform="matrix(6.12323e-17,1,-1,6.12323e-17,3038.33,-116.602)">
                    <path d="M837.129,479.165C830.204,475.918 817.73,474.83 812.85,485.996C809.462,493.751 812.865,496.137 812.663,503.426C812.32,515.826 777.939,522.202 795.663,532.811C841.494,560.243 820.596,507.38 824.574,503.072C830.505,496.651 848.825,510.311 852.627,500.483C856.61,490.183 843.074,481.953 837.129,479.165Z" style="fill:rgb(213,255,235);stroke:black;stroke-width:3px;"/>
                </g>
            </g>
            <g id="polyline" transform="matrix(1,0,0,1,146.47,-211.702)">
                <g transform="matrix(5.65545e-17,0.923605,-0.923605,5.65545e-17,2765.79,54.4633)">
                    <circle cx="866.042" cy="252.881" r="54.136" style="fill:rgb(177,207,208);"/>
                </g>
                <g transform="matrix(6.12323e-17,1,-1,6.12323e-17,2732,-1.67287e-13)">
                    <path d="M829.394,188.273L849.806,226.182L861.471,175.637L881.883,197.021" style="fill:none;stroke:black;stroke-width:3px;"/>
                </g>
            </g>
            <g id="select" transform="matrix(1,0,0,1,146.47,-212.826)">
                <g transform="matrix(5.65545e-17,0.923605,-0.923605,5.65545e-17,2765.79,203.44)">
                    <circle cx="866.042" cy="252.881" r="54.136" style="fill:rgb(177,207,208);"/>
                </g>
                <g transform="matrix(3.23555e-17,0.528405,-0.528405,3.23555e-17,2768.93,461.33)">
                    <path d="M1035.76,386.138L1006.91,430.182L984.126,401.326L975.013,504.602L1075.25,477.264L1043.36,452.964L1081.33,422.589L1035.76,386.138Z" style="fill:rgb(213,255,235);stroke:black;stroke-width:5.68px;"/>
                </g>
            </g>
            <g id="download" transform="matrix(1,0,0,1,146.47,674.29)">
                <g transform="matrix(5.65545e-17,0.923605,-0.923605,5.65545e-17,2765.79,203.44)">
                    <circle cx="866.042" cy="252.881" r="54.136" style="fill:rgb(177,207,208);"/>
                </g>
                <g transform="matrix(-0.233726,-0.972303,0.972303,-0.233726,2148.06,3699.8)">
                    <g transform="matrix(3.23555e-17,0.528405,-0.528405,3.23555e-17,2769.27,475.825)">
                        <path d="M1013.9,429.226L1007.66,393.402L942.433,407.662L948.372,505.155L1022.36,488.07L1019.99,469.496L1031.49,460.199L1028.47,432.276L1013.9,429.226Z" style="fill:rgb(121,216,171);stroke:black;stroke-width:5.68px;"/>
                    </g>
                    <g transform="matrix(6.12323e-17,1,-1,6.12323e-17,2622.53,-714.29)">
                        <path d="M1741.73,60.944L1721.86,72.178L1719.17,65.126L1709.45,84.276L1728.68,92.469L1727.8,85.412L1748.3,75.571L1741.73,60.944" style="fill:rgb(213,255,235);stroke:black;stroke-width:3px;"/>
                    </g>
                    <g transform="matrix(5.70652e-17,0.931945,-0.878378,5.37851e-17,2613.02,-597.659)">
                        <path d="M1718.37,69.864L1723.12,76.729L1728.89,84.615L1727.73,85.832L1727.67,92.611L1723.73,90.219L1722.41,82.308L1715.2,80.28L1715.03,75.901L1718.37,69.864Z" style="fill:rgb(106,197,154);"/>
                    </g>
                    <g transform="matrix(3.23555e-17,0.528405,-0.528405,3.23555e-17,2768.93,461.33)">
                        <path d="M1021.32,429.61L1015.08,393.785L968.131,405.935L975.013,504.602L1029.78,488.454L1027.4,469.88L1038.9,460.583L1035.89,432.66L1021.32,429.61Z" style="fill:rgb(213,255,235);stroke:black;stroke-width:5.68px;"/>
                    </g>
                </g>
                <g transform="matrix(0.312732,0.949842,-0.949842,0.312732,2078.82,-661.251)">
                    <g transform="matrix(24,0,0,24,1703.25,110.343)">
                        <path d="M0.031,-0.155L0.118,-0.168C0.123,-0.134 0.136,-0.107 0.158,-0.088C0.181,-0.07 0.212,-0.061 0.252,-0.061C0.292,-0.061 0.322,-0.069 0.342,-0.085C0.361,-0.102 0.371,-0.121 0.371,-0.143C0.371,-0.163 0.362,-0.179 0.345,-0.19C0.333,-0.198 0.303,-0.208 0.255,-0.22C0.191,-0.236 0.146,-0.25 0.121,-0.262C0.096,-0.274 0.078,-0.29 0.065,-0.311C0.052,-0.332 0.045,-0.355 0.045,-0.381C0.045,-0.404 0.051,-0.425 0.061,-0.445C0.072,-0.465 0.086,-0.481 0.104,-0.494C0.118,-0.504 0.137,-0.513 0.16,-0.52C0.184,-0.527 0.209,-0.53 0.236,-0.53C0.277,-0.53 0.313,-0.524 0.344,-0.513C0.374,-0.501 0.397,-0.485 0.412,-0.465C0.426,-0.445 0.436,-0.418 0.442,-0.385L0.356,-0.373C0.352,-0.4 0.341,-0.421 0.322,-0.436C0.303,-0.451 0.277,-0.458 0.243,-0.458C0.202,-0.458 0.174,-0.451 0.156,-0.438C0.139,-0.425 0.13,-0.409 0.13,-0.391C0.13,-0.38 0.134,-0.369 0.141,-0.36C0.148,-0.351 0.16,-0.343 0.175,-0.337C0.184,-0.334 0.209,-0.326 0.252,-0.314C0.315,-0.298 0.358,-0.284 0.383,-0.274C0.407,-0.263 0.426,-0.248 0.44,-0.228C0.454,-0.207 0.461,-0.182 0.461,-0.152C0.461,-0.123 0.453,-0.095 0.436,-0.07C0.419,-0.044 0.394,-0.024 0.362,-0.01C0.33,0.005 0.293,0.012 0.252,0.012C0.185,0.012 0.134,-0.002 0.098,-0.03C0.063,-0.058 0.041,-0.1 0.031,-0.155Z" style="fill-rule:nonzero;"/>
                    </g>
                    <g transform="matrix(24,0,0,24,1715.25,110.343)">
                        <path d="M0.21,-0L0.013,-0.519L0.105,-0.519L0.217,-0.208C0.229,-0.174 0.24,-0.14 0.25,-0.104C0.258,-0.131 0.269,-0.164 0.283,-0.202L0.398,-0.519L0.488,-0.519L0.292,-0L0.21,-0Z" style="fill-rule:nonzero;"/>
                    </g>
                    <g transform="matrix(24,0,0,24,1727.25,110.343)">
                        <path d="M0.05,0.043L0.135,0.056C0.139,0.082 0.149,0.101 0.165,0.113C0.187,0.13 0.217,0.138 0.254,0.138C0.295,0.138 0.326,0.13 0.349,0.113C0.371,0.097 0.386,0.074 0.394,0.045C0.398,0.027 0.4,-0.011 0.4,-0.068C0.361,-0.023 0.314,-0 0.256,-0C0.185,-0 0.13,-0.026 0.091,-0.077C0.052,-0.129 0.032,-0.19 0.032,-0.262C0.032,-0.312 0.041,-0.357 0.059,-0.399C0.077,-0.441 0.103,-0.473 0.137,-0.496C0.171,-0.519 0.211,-0.53 0.257,-0.53C0.318,-0.53 0.368,-0.506 0.408,-0.456L0.408,-0.519L0.489,-0.519L0.489,-0.07C0.489,0.01 0.481,0.068 0.465,0.101C0.448,0.135 0.422,0.162 0.386,0.181C0.351,0.201 0.307,0.21 0.255,0.21C0.193,0.21 0.143,0.197 0.105,0.169C0.067,0.141 0.049,0.099 0.05,0.043ZM0.123,-0.269C0.123,-0.201 0.136,-0.151 0.163,-0.12C0.19,-0.088 0.224,-0.073 0.265,-0.073C0.305,-0.073 0.339,-0.088 0.366,-0.119C0.394,-0.15 0.407,-0.199 0.407,-0.266C0.407,-0.329 0.393,-0.377 0.365,-0.409C0.337,-0.441 0.303,-0.458 0.263,-0.458C0.224,-0.458 0.191,-0.442 0.164,-0.41C0.136,-0.378 0.123,-0.331 0.123,-0.269Z" style="fill-rule:nonzero;"/>
                    </g>
                </g>
            </g>
            <g id="upload" transform="matrix(1,0,0,1,146.47,813.389)">
                <g transform="matrix(5.65545e-17,0.923605,-0.923605,5.65545e-17,2765.79,203.44)">
                    <circle cx="866.042" cy="252.881" r="54.136" style="fill:rgb(177,207,208);"/>
                </g>
                <g transform="matrix(0.221131,0.975244,-0.975244,0.221131,2952.59,-1689.36)">
                    <g transform="matrix(3.23555e-17,0.528405,-0.528405,3.23555e-17,2769.27,475.825)">
                        <path d="M1013.9,429.226L1007.66,393.402L942.433,407.662L948.372,505.155L1022.36,488.07L1019.99,469.496L1031.49,460.199L1028.47,432.276L1013.9,429.226Z" style="fill:rgb(121,216,171);stroke:black;stroke-width:5.68px;"/>
                    </g>
                    <g transform="matrix(-0.113554,-0.993532,0.993532,-0.113554,2667.83,2740.09)">
                        <path d="M1741.73,60.944L1721.86,72.178L1719.17,65.126L1709.45,84.276L1728.68,92.469L1727.8,85.412L1748.3,75.571L1741.73,60.944" style="fill:rgb(213,255,235);stroke:black;stroke-width:3px;"/>
                    </g>
                    <g transform="matrix(5.70652e-17,0.931945,-0.878378,5.37851e-17,2613.02,-597.659)">
                        <path d="M1718.37,69.864L1723.12,76.729L1728.89,84.615L1727.73,85.832L1727.67,92.611L1723.73,90.219L1722.41,82.308L1715.2,80.28L1715.03,75.901L1718.37,69.864Z" style="fill:rgb(106,197,154);"/>
                    </g>
                    <g transform="matrix(3.23555e-17,0.528405,-0.528405,3.23555e-17,2768.93,461.33)">
                        <path d="M1021.32,429.61L1015.08,393.785L968.131,405.935L975.013,504.602L1029.78,488.454L1027.4,469.88L1038.9,460.583L1035.89,432.66L1021.32,429.61Z" style="fill:rgb(255,213,228);stroke:black;stroke-width:5.68px;"/>
                    </g>
                </g>
            </g>
            <g id="rotate" transform="matrix(1,0,0,1,146.47,-213.95)">
                <g transform="matrix(5.65545e-17,0.923605,-0.923605,5.65545e-17,2765.79,352.417)">
                    <circle cx="866.042" cy="252.881" r="54.136" style="fill:rgb(177,207,208);"/>
                </g>
                <g>
                    <g transform="matrix(6.12323e-17,1,-1,6.12323e-17,2941.02,14.308)">
                        <path d="M1108.54,404.565C1110.65,389.86 1123.32,378.544 1138.6,378.544C1153.89,378.544 1166.55,389.86 1168.67,404.565" style="fill:none;stroke:black;stroke-width:3px;"/>
                    </g>
                    <g transform="matrix(6.12323e-17,1,-1,6.12323e-17,2941.02,14.308)">
                        <path d="M1168.67,413.274C1166.55,427.979 1153.89,439.295 1138.6,439.295C1123.32,439.295 1110.65,427.979 1108.54,413.274" style="fill:none;stroke:black;stroke-width:3px;"/>
                    </g>
                    <g transform="matrix(6.12323e-17,1,-1,6.12323e-17,2941.02,14.308)">
                        <path d="M1155.71,400.973L1170.02,404.084L1173.13,392.886" style="fill:none;stroke:black;stroke-width:3px;"/>
                    </g>
                    <g transform="matrix(6.12323e-17,1,-1,6.12323e-17,2941.02,14.308)">
                        <path d="M1109.68,413.415L1105.32,422.124" style="fill:none;stroke:black;stroke-width:3px;"/>
                    </g>
                    <g transform="matrix(6.12323e-17,1,-1,6.12323e-17,2941.02,14.308)">
                        <path d="M1109.68,413.415L1120.25,417.148" style="fill:none;stroke:black;stroke-width:3px;"/>
                    </g>
                </g>
            </g>
            <g id="move" transform="matrix(1,0,0,1,146.47,-215.074)">
                <g transform="matrix(5.65545e-17,0.923605,-0.923605,5.65545e-17,2765.79,501.393)">
                    <circle cx="866.042" cy="252.881" r="54.136" style="fill:rgb(177,207,208);"/>
                </g>
                <g transform="matrix(0.719319,0,0,0.719319,827.829,494.019)">
                    <g transform="matrix(1,0,0,1,0,6.22087)">
                        <g transform="matrix(6.12323e-17,1,-1,6.12323e-17,2732,-1.24417)">
                            <path d="M1119.01,326.945L1119.01,394.13" style="fill:none;stroke:black;stroke-width:4.17px;"/>
                        </g>
                        <g transform="matrix(6.12323e-17,1,-1,6.12323e-17,2732,-1.67287e-13)">
                            <path d="M1117.76,320.102L1129.58,332.544L1105.94,332.544L1117.76,320.102Z" style="stroke:black;stroke-width:4.17px;"/>
                        </g>
                        <g transform="matrix(6.12323e-17,1,1,-6.12323e-17,2009.79,-1.23064e-13)">
                            <path d="M1117.76,320.102L1129.58,332.544L1105.94,332.544L1117.76,320.102Z" style="stroke:black;stroke-width:4.17px;"/>
                        </g>
                    </g>
                    <g transform="matrix(6.12323e-17,1,-1,6.12323e-17,3488.66,-1246.91)">
                        <g transform="matrix(6.12323e-17,1,-1,6.12323e-17,2732,-1.24417)">
                            <path d="M1119.01,326.945L1119.01,394.13" style="fill:none;stroke:black;stroke-width:4.17px;"/>
                        </g>
                        <g transform="matrix(6.12323e-17,1,-1,6.12323e-17,2732,-1.67287e-13)">
                            <path d="M1117.76,320.102L1129.58,332.544L1105.94,332.544L1117.76,320.102Z" style="stroke:black;stroke-width:4.17px;"/>
                        </g>
                        <g transform="matrix(6.12323e-17,1,1,-6.12323e-17,2009.79,-1.23064e-13)">
                            <path d="M1117.76,320.102L1129.58,332.544L1105.94,332.544L1117.76,320.102Z" style="stroke:black;stroke-width:4.17px;"/>
                        </g>
                    </g>
                </g>
            </g>
            <g id="quicksave" transform="matrix(1,0,0,1,146.47,-67.2211)">
                <g transform="matrix(5.65545e-17,0.923605,-0.923605,5.65545e-17,2765.79,501.393)">
                    <circle cx="866.042" cy="252.881" r="54.136" style="fill:rgb(177,207,208);"/>
                </g>
                <g transform="matrix(1.61305e-16,2.63431,-2.63431,1.61305e-16,3056.68,-2495.94)">
                    <g transform="matrix(24,0,0,24,1428.41,203.593)">
                        <path d="M0.396,0.199L0.396,-0.055C0.383,-0.036 0.364,-0.02 0.339,-0.007C0.315,0.005 0.288,0.012 0.261,0.012C0.199,0.012 0.146,-0.013 0.102,-0.062C0.057,-0.111 0.035,-0.179 0.035,-0.264C0.035,-0.316 0.044,-0.363 0.062,-0.404C0.08,-0.446 0.107,-0.477 0.141,-0.498C0.175,-0.52 0.213,-0.53 0.254,-0.53C0.318,-0.53 0.368,-0.503 0.405,-0.449L0.405,-0.519L0.484,-0.519L0.484,0.199L0.396,0.199ZM0.125,-0.261C0.125,-0.194 0.139,-0.144 0.167,-0.111C0.195,-0.077 0.229,-0.061 0.268,-0.061C0.306,-0.061 0.338,-0.076 0.365,-0.108C0.392,-0.14 0.405,-0.188 0.405,-0.253C0.405,-0.322 0.391,-0.374 0.363,-0.409C0.334,-0.444 0.301,-0.461 0.262,-0.461C0.224,-0.461 0.192,-0.445 0.165,-0.412C0.139,-0.38 0.125,-0.329 0.125,-0.261Z" style="fill-rule:nonzero;"/>
                    </g>
                    <g transform="matrix(24,0,0,24,1441.76,203.593)">
                        <path d="M0.031,-0.155L0.118,-0.168C0.123,-0.134 0.136,-0.107 0.158,-0.088C0.181,-0.07 0.212,-0.061 0.252,-0.061C0.292,-0.061 0.322,-0.069 0.342,-0.085C0.361,-0.102 0.371,-0.121 0.371,-0.143C0.371,-0.163 0.362,-0.179 0.345,-0.19C0.333,-0.198 0.303,-0.208 0.255,-0.22C0.191,-0.236 0.146,-0.25 0.121,-0.262C0.096,-0.274 0.078,-0.29 0.065,-0.311C0.052,-0.332 0.045,-0.355 0.045,-0.381C0.045,-0.404 0.051,-0.425 0.061,-0.445C0.072,-0.465 0.086,-0.481 0.104,-0.494C0.118,-0.504 0.137,-0.513 0.16,-0.52C0.184,-0.527 0.209,-0.53 0.236,-0.53C0.277,-0.53 0.313,-0.524 0.344,-0.513C0.374,-0.501 0.397,-0.485 0.412,-0.465C0.426,-0.445 0.436,-0.418 0.442,-0.385L0.356,-0.373C0.352,-0.4 0.341,-0.421 0.322,-0.436C0.303,-0.451 0.277,-0.458 0.243,-0.458C0.202,-0.458 0.174,-0.451 0.156,-0.438C0.139,-0.425 0.13,-0.409 0.13,-0.391C0.13,-0.38 0.134,-0.369 0.141,-0.36C0.148,-0.351 0.16,-0.343 0.175,-0.337C0.184,-0.334 0.209,-0.326 0.252,-0.314C0.315,-0.298 0.358,-0.284 0.383,-0.274C0.407,-0.263 0.426,-0.248 0.44,-0.228C0.454,-0.207 0.461,-0.182 0.461,-0.152C0.461,-0.123 0.453,-0.095 0.436,-0.07C0.419,-0.044 0.394,-0.024 0.362,-0.01C0.33,0.005 0.293,0.012 0.252,0.012C0.185,0.012 0.134,-0.002 0.098,-0.03C0.063,-0.058 0.041,-0.1 0.031,-0.155Z" style="fill-rule:nonzero;"/>
                    </g>
                </g>
            </g>
            <g id="pan" transform="matrix(1,0,0,1,146.47,80.6316)">
                <g transform="matrix(5.65545e-17,0.923605,-0.923605,5.65545e-17,2765.79,501.393)">
                    <circle cx="866.042" cy="252.881" r="54.136" style="fill:rgb(177,207,208);"/>
                </g>
                <g transform="matrix(3.21776e-17,0.5255,-0.5255,3.21776e-17,2631.53,590.36)">
                    <path d="M1337.08,245.95C1297.51,233.96 1282.47,172.566 1293.76,161.649C1310.32,145.626 1316.38,176.564 1317.67,175.913C1320.05,174.711 1325.99,132.075 1336.64,130.212C1351.07,127.687 1350.22,163.357 1355.9,162.387C1357.78,162.064 1365.29,131.801 1374.91,134.569C1385.7,137.673 1381.7,174.621 1384.05,174.029C1386.06,173.525 1396.48,147.301 1412,154.172C1425.22,160.027 1403.95,228.809 1392,238.31C1380.63,247.348 1365.2,254.467 1337.08,245.95Z" style="fill:rgb(213,255,235);stroke:black;stroke-width:5.71px;"/>
                </g>
            </g>
            <g id="zoom" transform="matrix(1,0,0,1,146.47,228.484)">
                <g transform="matrix(5.65545e-17,0.923605,-0.923605,5.65545e-17,2765.79,501.393)">
                    <circle cx="866.042" cy="252.881" r="54.136" style="fill:rgb(177,207,208);"/>
                </g>
                <g id="magnifing-glass" serif:id="magnifing glass" transform="matrix(1,0,0,1,-3.97186,-2.58913)">
                    <g transform="matrix(6.12323e-17,1,-1,6.12323e-17,2640.19,-282.42)">
                        <circle cx="1586.54" cy="91.499" r="16.306" style="fill:rgb(106,197,154);stroke:black;stroke-width:3px;"/>
                    </g>
                    <g transform="matrix(6.12323e-17,1,-1,6.12323e-17,2622.17,-268.973)">
                        <rect x="1569.1" y="97.376" width="7.982" height="23.235" style="fill:rgb(79,79,79);stroke:black;stroke-width:3px;"/>
                    </g>
                    <g transform="matrix(6.12323e-17,1,-1,6.12323e-17,2623.27,-267.772)">
                        <rect x="1569.74" y="90.358" width="4.316" height="8.506"/>
                    </g>
                    <g transform="matrix(6.12323e-17,1,-1,6.12323e-17,2616.98,-263.663)">
                        <ellipse cx="1569.99" cy="70.629" rx="4.727" ry="4.929" style="fill:rgb(158,236,199);"/>
                    </g>
                    <g transform="matrix(4.80548e-17,0.784794,-0.784794,4.80548e-17,2608.74,67.3339)">
                        <ellipse cx="1569.99" cy="70.629" rx="4.727" ry="4.929" style="fill:rgb(205,243,225);"/>
                    </g>
                </g>
            </g>
            <g id="order-down" transform="matrix(-1,1.22465e-16,-1.22465e-16,-1,5325.77,3912.68)">
                <g transform="matrix(6.12323e-17,1,-1.75209,1.07285e-16,2726.86,1.23719)">
                    <rect x="1929.41" y="29.185" width="91.392" height="15.821" style="fill:rgb(255,213,228);"/>
                </g>
                <g transform="matrix(6.12323e-17,1,-1,6.12323e-17,2732,-3.34141)">
                    <path d="M1979.68,62.183L1987.32,77.456L1972.04,77.456L1979.68,62.183Z" style="fill:rgb(114,1,41);"/>
                </g>
            </g>
            <g id="order-up" transform="matrix(1,0,0,1,38.0826,-40)">
                <g transform="matrix(6.12323e-17,1,-1.75209,1.07285e-16,2726.86,1.23719)">
                    <rect x="1929.41" y="29.185" width="91.392" height="15.821" style="fill:rgb(255,213,228);"/>
                </g>
                <g transform="matrix(6.12323e-17,1,-1,6.12323e-17,2732,-3.34141)">
                    <path d="M1979.68,62.183L1987.32,77.456L1972.04,77.456L1979.68,62.183Z" style="fill:rgb(114,1,41);"/>
                </g>
            </g>
            <g id="order-bottom" transform="matrix(1,0,0,1,36.4021,-40)">
                <g transform="matrix(6.12323e-17,1,-1,6.12323e-17,2634.5,1.23719)">
                    <rect x="1929.41" y="29.185" width="91.392" height="15.821" style="fill:rgb(255,213,228);"/>
                </g>
                <g transform="matrix(-1.83697e-16,-1,0.566191,-1.04008e-16,2557.27,3956.02)">
                    <path d="M1979.68,62.183L1987.32,77.456L1972.04,77.456L1979.68,62.183Z" style="fill:rgb(114,1,41);"/>
                </g>
            </g>
            <g id="duplicate" transform="matrix(1,0,0,1,12.2573,-40.7997)">
                <g transform="matrix(6.12323e-17,1,-1,6.12323e-17,2634.5,1.23719)">
                    <rect x="1929.41" y="29.185" width="91.392" height="15.821" style="fill:rgb(255,213,228);"/>
                </g>
                <g transform="matrix(1,0,0,1,0,-0.740397)">
                    <g transform="matrix(-1.83697e-16,-1,0.566191,-1.04008e-16,2557.27,3948.12)">
                        <path d="M1979.68,62.183L1987.32,77.456L1972.04,77.456L1979.68,62.183Z" style="fill:rgb(114,1,41);"/>
                    </g>
                    <g transform="matrix(-1.83697e-16,-1,0.566191,-1.04008e-16,2557.27,3965.4)">
                        <path d="M1979.68,62.183L1987.32,77.456L1972.04,77.456L1979.68,62.183Z" style="fill:rgb(114,1,41);"/>
                    </g>
                </g>
            </g>
            <g id="delete" transform="matrix(1,0,0,1,-11.8875,-40.7997)">
                <g transform="matrix(6.12323e-17,1,-1,6.12323e-17,2634.5,1.23719)">
                    <rect x="1929.41" y="29.185" width="91.392" height="15.821" style="fill:rgb(255,213,228);"/>
                </g>
                <g>
                    <g transform="matrix(0.603201,0.797589,-0.797589,0.603201,1554.31,286.367)">
                        <rect x="1976.09" y="181.654" width="2.025" height="11.545" style="fill:rgb(114,1,41);"/>
                    </g>
                    <g transform="matrix(0.603201,-0.797589,-0.797589,-0.603201,1554.31,3666.31)">
                        <rect x="1976.09" y="181.654" width="2.025" height="11.545" style="fill:rgb(114,1,41);"/>
                    </g>
                </g>
            </g>
            <g id="order-top" transform="matrix(-1,1.22465e-16,-1.22465e-16,-1,5327.45,3912.68)">
                <g transform="matrix(6.12323e-17,1,-1,6.12323e-17,2634.5,1.23719)">
                    <rect x="1929.41" y="29.185" width="91.392" height="15.821" style="fill:rgb(255,213,228);"/>
                </g>
                <g transform="matrix(-1.83697e-16,-1,0.566191,-1.04008e-16,2557.27,3956.02)">
                    <path d="M1979.68,62.183L1987.32,77.456L1972.04,77.456L1979.68,62.183Z" style="fill:rgb(114,1,41);"/>
                </g>
            </g>
        </g>
    </g>
</svg>
