<?xml version="1.0" encoding="UTF-8" standalone="no"?>
<!DOCTYPE svg PUBLIC "-//W3C//DTD SVG 1.1//EN" "http://www.w3.org/Graphics/SVG/1.1/DTD/svg11.dtd">
<svg width="100%" height="100%" viewBox="0 0 2048 2732" version="1.1" xmlns="http://www.w3.org/2000/svg" xmlns:xlink="http://www.w3.org/1999/xlink" xml:space="preserve" xmlns:serif="http://www.serif.com/" style="fill-rule:evenodd;clip-rule:evenodd;stroke-linecap:round;stroke-linejoin:round;stroke-miterlimit:1.5;">
    <g id="Artboard1" transform="matrix(6.12323e-17,-1,1,6.12323e-17,0,2732)">
        <rect x="0" y="0" width="2732" height="2048" style="fill:none;"/>
        <g id="Trash" transform="matrix(6.12323e-17,1,-1,6.12323e-17,3267.69,-8683.36)">
            <g transform="matrix(0.6,0,0,0.6,4662.6,147.2)">
                <circle cx="7099" cy="798" r="80" style="fill:rgb(255,59,48);"/>
            </g>
            <g transform="matrix(2,0,0,2,8718,578)">
                <path d="M106,15C106,13.895 105.105,13 104,13L100,13C98.895,13 98,13.895 98,15L95,15C94.448,15 94,15.448 94,16L110,16C110,15.448 109.552,15 109,15L106,15ZM94.947,16.921L109.018,16.921L108.316,33.74C108.316,33.74 108.051,35 107.052,35L96.947,35C95.949,35 95.684,33.74 95.684,33.74L94.947,16.921ZM105.9,19L104.9,19L104.4,33.438L105.4,33.438L105.9,19ZM99.5,33.438L99,19L98,19L98.5,33.438L99.5,33.438ZM101.5,19L101.5,33.438L102.5,33.438L102.5,19L101.5,19Z" style="fill:white;"/>
            </g>
        </g>
        <g id="undo" transform="matrix(6.12323e-17,1,-1,6.12323e-17,3041.29,-9125.93)">
            <g transform="matrix(0.6,0,0,0.6,4962.6,185.2)">
                <circle cx="7099" cy="798" r="80" style="fill:rgb(0,122,255);"/>
            </g>
            <g transform="matrix(2,0,0,2,8705.8,615.982)">
                <path d="M258.462,19.657C258.264,19.657 258,19.67 258,19.682L258,14.018L246,23.077L258,32.018L258,25.809C258,25.719 258.945,25.657 259.5,25.657C264.426,25.657 268.512,29.182 269.817,34C270.041,33.108 270.205,32.18 270.205,31.22C270.205,24.834 264.965,19.657 258.462,19.657Z" style="fill:white;"/>
            </g>
        </g>
        <g id="redo" transform="matrix(-6.12323e-17,-1,-1,6.12323e-17,3172.49,9318.07)">
            <g transform="matrix(0.6,0,0,0.6,4962.6,185.2)">
                <circle cx="7099" cy="798" r="80" style="fill:rgb(0,122,255);"/>
            </g>
            <g transform="matrix(2,0,0,2,8705.8,615.982)">
                <path d="M258.462,19.657C258.264,19.657 258,19.67 258,19.682L258,14.018L246,23.077L258,32.018L258,25.809C258,25.719 258.945,25.657 259.5,25.657C264.426,25.657 268.512,29.182 269.817,34C270.041,33.108 270.205,32.18 270.205,31.22C270.205,24.834 264.965,19.657 258.462,19.657Z" style="fill:white;"/>
            </g>
        </g>
        <g id="New" transform="matrix(1,0,0,1,109.32,-634.15)">
            <g transform="matrix(5.65545e-17,0.923605,-0.923605,5.65545e-17,2765.94,-69.663)">
                <circle cx="866.042" cy="252.881" r="54.136" style="fill:rgb(177,207,208);"/>
            </g>
            <g transform="matrix(6.12323e-17,1,-1,6.12323e-17,3964.12,-674.091)">
                <path d="M1383.5,1414.6L1413.5,1414.6L1411.5,1416.6L1385.5,1416.6L1385.5,1450.6L1419.5,1450.6L1419.5,1424.6L1421.5,1422.6L1421.5,1452.6L1383.5,1452.6L1383.5,1414.6ZM1421.9,1412L1402.5,1431.5L1404.6,1433.6L1424,1414.1L1425.5,1415.5L1405.7,1435.3L1399.1,1436.9L1400.7,1430.4L1420.5,1410.6L1421.9,1412ZM1429.3,1410.3L1425.8,1406.8C1425.4,1406.4 1424.8,1406.4 1424.4,1406.8L1422.1,1409.1L1427,1414L1429.3,1411.7C1429.6,1411.3 1429.6,1410.7 1429.3,1410.3Z"/>
            </g>
            <g transform="matrix(7.79321e-17,1.27273,-1.2963,7.93753e-17,2592.86,381.772)">
                <rect x="248" y="18" width="55" height="54" style="fill:none;"/>
            </g>
        </g>
        <g id="notfilled" transform="matrix(1,0,0,1,109.47,-173.052)">
            <g transform="matrix(5.65545e-17,0.923605,-0.923605,5.65545e-17,2765.79,-243.49)">
                <circle cx="866.042" cy="252.881" r="54.136" style="fill:rgb(177,207,208);"/>
            </g>
            <g transform="matrix(6.12323e-17,1,-1,6.12323e-17,3038.33,-264.348)">
                <path d="M837.129,479.165C830.204,475.918 817.73,474.83 812.85,485.996C809.462,493.751 812.865,496.137 812.663,503.426C812.32,515.826 777.939,522.202 795.663,532.811C841.494,560.243 820.596,507.38 824.574,503.072C830.505,496.651 848.825,510.311 852.627,500.483C856.61,490.183 843.074,481.953 837.129,479.165Z" style="fill:none;stroke:black;stroke-width:3px;"/>
            </g>
        </g>
        <g id="filled" transform="matrix(1,0,0,1,109.47,-175.334)">
            <g transform="matrix(5.65545e-17,0.923605,-0.923605,5.65545e-17,2765.79,-94.5133)">
                <circle cx="866.042" cy="252.881" r="54.136" style="fill:rgb(177,207,208);"/>
            </g>
            <g transform="matrix(6.12323e-17,1,-1,6.12323e-17,3038.33,-116.602)">
                <path d="M837.129,479.165C830.204,475.918 817.73,474.83 812.85,485.996C809.462,493.751 812.865,496.137 812.663,503.426C812.32,515.826 777.939,522.202 795.663,532.811C841.494,560.243 820.596,507.38 824.574,503.072C830.505,496.651 848.825,510.311 852.627,500.483C856.61,490.183 843.074,481.953 837.129,479.165Z" style="fill:rgb(213,255,235);stroke:black;stroke-width:3px;"/>
            </g>
        </g>
        <g id="polyline" transform="matrix(1,0,0,1,109.47,-177.616)">
            <g transform="matrix(5.65545e-17,0.923605,-0.923605,5.65545e-17,2765.79,54.4633)">
                <circle cx="866.042" cy="252.881" r="54.136" style="fill:rgb(177,207,208);"/>
            </g>
            <g transform="matrix(6.12323e-17,1,-1,6.12323e-17,2732,-1.67287e-13)">
                <path d="M829.394,188.273L849.806,226.182L861.471,175.637L881.883,197.021" style="fill:none;stroke:black;stroke-width:3px;"/>
            </g>
        </g>
        <g id="select" transform="matrix(1,0,0,1,109.47,-179.898)">
            <g transform="matrix(5.65545e-17,0.923605,-0.923605,5.65545e-17,2765.79,203.44)">
                <circle cx="866.042" cy="252.881" r="54.136" style="fill:rgb(177,207,208);"/>
            </g>
            <g transform="matrix(3.23555e-17,0.528405,-0.528405,3.23555e-17,2768.93,461.33)">
                <path d="M1035.76,386.138L1006.91,430.182L984.126,401.326L975.013,504.602L1075.25,477.264L1043.36,452.964L1081.33,422.589L1035.76,386.138Z" style="fill:rgb(213,255,235);stroke:black;stroke-width:5.68px;"/>
            </g>
        </g>
        <g id="rotate" transform="matrix(1,0,0,1,109.47,-182.18)">
            <g transform="matrix(5.65545e-17,0.923605,-0.923605,5.65545e-17,2765.79,352.417)">
                <circle cx="866.042" cy="252.881" r="54.136" style="fill:rgb(177,207,208);"/>
            </g>
            <g>
                <g transform="matrix(6.12323e-17,1,-1,6.12323e-17,2941.02,14.308)">
                    <path d="M1108.54,404.565C1110.65,389.86 1123.32,378.544 1138.6,378.544C1153.89,378.544 1166.55,389.86 1168.67,404.565" style="fill:none;stroke:black;stroke-width:3px;"/>
                </g>
                <g transform="matrix(6.12323e-17,1,-1,6.12323e-17,2941.02,14.308)">
                    <path d="M1168.67,413.274C1166.55,427.979 1153.89,439.295 1138.6,439.295C1123.32,439.295 1110.65,427.979 1108.54,413.274" style="fill:none;stroke:black;stroke-width:3px;"/>
                </g>
                <g transform="matrix(6.12323e-17,1,-1,6.12323e-17,2941.02,14.308)">
                    <path d="M1155.71,400.973L1170.02,404.084L1173.13,392.886" style="fill:none;stroke:black;stroke-width:3px;"/>
                </g>
                <g transform="matrix(6.12323e-17,1,-1,6.12323e-17,2941.02,14.308)">
                    <path d="M1109.68,413.415L1105.32,422.124" style="fill:none;stroke:black;stroke-width:3px;"/>
                </g>
                <g transform="matrix(6.12323e-17,1,-1,6.12323e-17,2941.02,14.308)">
                    <path d="M1109.68,413.415L1120.25,417.148" style="fill:none;stroke:black;stroke-width:3px;"/>
                </g>
            </g>
        </g>
        <g id="move" transform="matrix(1,0,0,1,109.47,-184.462)">
            <g transform="matrix(5.65545e-17,0.923605,-0.923605,5.65545e-17,2765.79,501.393)">
                <circle cx="866.042" cy="252.881" r="54.136" style="fill:rgb(177,207,208);"/>
            </g>
            <g transform="matrix(0.719319,0,0,0.719319,827.829,494.019)">
                <g transform="matrix(1,0,0,1,0,6.22087)">
                    <g transform="matrix(6.12323e-17,1,-1,6.12323e-17,2732,-1.24417)">
                        <path d="M1119.01,326.945L1119.01,394.13" style="fill:none;stroke:black;stroke-width:4.17px;"/>
                    </g>
                    <g transform="matrix(6.12323e-17,1,-1,6.12323e-17,2732,-1.67287e-13)">
                        <path d="M1117.76,320.102L1129.58,332.544L1105.94,332.544L1117.76,320.102Z" style="stroke:black;stroke-width:4.17px;"/>
                    </g>
                    <g transform="matrix(6.12323e-17,1,1,-6.12323e-17,2009.79,-1.23064e-13)">
                        <path d="M1117.76,320.102L1129.58,332.544L1105.94,332.544L1117.76,320.102Z" style="stroke:black;stroke-width:4.17px;"/>
                    </g>
                </g>
                <g transform="matrix(6.12323e-17,1,-1,6.12323e-17,3488.66,-1246.91)">
                    <g transform="matrix(6.12323e-17,1,-1,6.12323e-17,2732,-1.24417)">
                        <path d="M1119.01,326.945L1119.01,394.13" style="fill:none;stroke:black;stroke-width:4.17px;"/>
                    </g>
                    <g transform="matrix(6.12323e-17,1,-1,6.12323e-17,2732,-1.67287e-13)">
                        <path d="M1117.76,320.102L1129.58,332.544L1105.94,332.544L1117.76,320.102Z" style="stroke:black;stroke-width:4.17px;"/>
                    </g>
                    <g transform="matrix(6.12323e-17,1,1,-6.12323e-17,2009.79,-1.23064e-13)">
                        <path d="M1117.76,320.102L1129.58,332.544L1105.94,332.544L1117.76,320.102Z" style="stroke:black;stroke-width:4.17px;"/>
                    </g>
                </g>
            </g>
        </g>
        <g id="quicksave" transform="matrix(1,0,0,1,109.47,-37.7679)">
            <g transform="matrix(5.65545e-17,0.923605,-0.923605,5.65545e-17,2765.79,501.393)">
                <circle cx="866.042" cy="252.881" r="54.136" style="fill:rgb(177,207,208);"/>
            </g>
            <g transform="matrix(1.61305e-16,2.63431,-2.63431,1.61305e-16,3056.68,-2495.94)">
                <text x="1428.41px" y="203.593px" style="font-family:'ArialMT', 'Arial', sans-serif;font-size:24px;">qs</text>
            </g>
        </g>
    </g>
</svg>
