<?xml version="1.0" encoding="UTF-8" standalone="no"?>
<!DOCTYPE svg PUBLIC "-//W3C//DTD SVG 1.1//EN" "http://www.w3.org/Graphics/SVG/1.1/DTD/svg11.dtd">
<svg width="100%" height="100%" viewBox="0 0 143 127" version="1.1" xmlns="http://www.w3.org/2000/svg" xmlns:xlink="http://www.w3.org/1999/xlink" xml:space="preserve" xmlns:serif="http://www.serif.com/" style="fill-rule:evenodd;clip-rule:evenodd;stroke-linejoin:round;stroke-miterlimit:2;">
    <g transform="matrix(1,0,0,1,-14.8049,-16.8717)">
        <g id="AddIcon" transform="matrix(1,0,0,1,-47.8713,-35.1838)">
            <path d="M125.832,66.441C125.832,58.501 119.386,52.055 111.447,52.055L77.226,52.055C69.286,52.055 62.841,58.501 62.841,66.441L62.841,95.211C62.841,103.15 69.286,109.596 77.226,109.596L111.447,109.596C119.386,109.596 125.832,103.15 125.832,95.211L125.832,66.441Z" style="fill:rgb(235,235,235);"/>
            <g transform="matrix(1,0,0,1,-112.111,-22.3564)">
                <path d="M214.091,103.182L214.091,80.826L199.864,80.826L199.864,103.182L182.391,103.182L182.391,109.596L199.864,109.596L199.864,125.538L214.091,125.538L214.091,109.596L230.504,109.596L230.504,103.182L214.091,103.182Z" style="fill:rgb(13,130,16);"/>
            </g>
        </g>
        <g id="SubtractIcon" transform="matrix(1,0,0,1,-87.6696,-31.9769)">
            <g transform="matrix(1,0,0,1,119.339,-3.20684)">
                <path d="M125.832,66.441C125.832,58.501 119.386,52.055 111.447,52.055L77.226,52.055C69.286,52.055 62.841,58.501 62.841,66.441L62.841,95.211C62.841,103.15 69.286,109.596 77.226,109.596L111.447,109.596C119.386,109.596 125.832,103.15 125.832,95.211L125.832,66.441Z" style="fill:rgb(235,235,235);"/>
            </g>
            <g transform="matrix(1,0,0,1,-97.6488,-28.7701)">
                <rect x="282.582" y="103.182" width="57.484" height="6.414" style="fill:rgb(200,22,22);"/>
            </g>
        </g>
        <g id="layerIcon" transform="matrix(1,0,0,1,-0.164362,1.26494)">
            <g transform="matrix(1.05621,0,0,1.03624,-8.69857,-3.51101)">
                <path d="M154.748,100.217C154.748,92.814 148.851,86.804 141.588,86.804L35.568,86.804C28.305,86.804 22.408,92.814 22.408,100.217L22.408,127.043C22.408,134.446 28.305,140.456 35.568,140.456L141.588,140.456C148.851,140.456 154.748,134.446 154.748,127.043L154.748,100.217Z" style="fill:rgb(235,235,235);"/>
            </g>
            <g id="Eye" transform="matrix(0.573475,0,0,0.573475,-37.848,-21.7849)">
                <g transform="matrix(1.11479,0,0,1.503,-15.5647,-97.129)">
                    <path d="M103.51,202.967C108.033,194.684 120.695,188.715 135.591,188.715C150.487,188.715 163.149,194.684 167.672,202.967C163.149,211.249 150.487,217.219 135.591,217.219C120.695,217.219 108.033,211.249 103.51,202.967Z" style="fill:rgb(40,40,40);"/>
                </g>
                <g transform="matrix(1,0,0,1.34823,0,-65.7168)">
                    <path d="M103.51,202.967C108.033,194.684 120.695,188.715 135.591,188.715C150.487,188.715 163.149,194.684 167.672,202.967C163.149,211.249 150.487,217.219 135.591,217.219C120.695,217.219 108.033,211.249 103.51,202.967Z" style="fill:rgb(169,200,210);"/>
                </g>
                <g transform="matrix(1,0,0,1,0,-1)">
                    <path d="M104.782,210.608C104.305,209.738 103.88,208.844 103.51,207.93C108.033,196.762 120.695,188.715 135.591,188.715C150.487,188.715 163.149,196.762 167.672,207.93C167.302,208.844 166.877,209.738 166.4,210.608C161.06,200.855 149.267,194.072 135.591,194.072C121.915,194.072 110.122,200.855 104.782,210.608Z" style="fill:rgb(159,154,154);"/>
                </g>
                <g transform="matrix(1.19324,0,0,1.19324,-39.2732,-53.2516)">
                    <circle cx="146.546" cy="218.885" r="10.955" style="fill:rgb(61,29,29);"/>
                </g>
                <g transform="matrix(0.632488,0,0,0.632488,36.7592,62.5586)">
                    <circle cx="146.546" cy="218.885" r="10.955" style="fill:rgb(248,248,248);"/>
                </g>
            </g>
            <g transform="matrix(1.83309,0,0,1.83309,-21.0006,-82.1836)">
                <text x="24.878px" y="115.742px" style="font-family:'ArialMT', 'Arial', sans-serif;font-size:12px;">Layer Name</text>
            </g>
        </g>
    </g>
</svg>
